<svg width="28" height="28" viewBox="0 0 28 28" fill="none" xmlns="http://www.w3.org/2000/svg">
<path d="M23.2028 9.20488C22.985 6.37414 20.5641 5.38044 17.4899 5.05196L17.5647 1.13272L15.179 1.08755L15.1064 4.90355C14.4792 4.89154 13.8379 4.89174 13.2007 4.89228L13.2743 1.05096L10.8901 1.00546L10.8145 4.92361C10.2979 4.92434 9.7904 4.92436 9.29587 4.91517L9.29581 4.90291L6.00552 4.83893L5.95755 7.38693C5.95755 7.38693 7.71987 7.38704 7.69 7.41875C8.65616 7.43742 8.96006 8.00451 9.0425 8.49031L8.95747 12.9552C9.02406 12.9568 9.11099 12.9612 9.20935 12.9767C9.12978 12.9753 9.04498 12.9733 8.95728 12.9724L8.83732 19.2273C8.78927 19.5305 8.60127 20.0122 7.92606 20.0004C7.95619 20.028 6.19197 19.9669 6.19197 19.9669L5.6635 22.807L8.76815 22.8661C9.34592 22.8779 9.91417 22.8986 10.4723 22.9126L10.3978 26.8765L12.7808 26.9223L12.8555 23.0002C13.5096 23.0263 14.1426 23.0435 14.761 23.0548L14.6854 26.9587L17.0712 27.0038L17.1473 23.0469C21.1625 22.8934 23.9889 21.9366 24.4092 18.1767C24.7484 15.1493 23.3477 13.7689 21.0815 13.1788C22.4782 12.5008 23.3667 11.2764 23.2037 9.205L23.2029 9.20466L23.2028 9.20488ZM19.7035 17.617C19.6482 20.5793 14.5826 20.1456 12.9657 20.1163L13.0665 14.8643C14.6837 14.8957 19.7626 14.5272 19.7036 17.6169L19.7035 17.617ZM18.7352 10.1859C18.6831 12.8809 14.4591 12.4858 13.1123 12.4602L13.2034 7.69699C14.5501 7.72261 18.7886 7.37514 18.7354 10.1859L18.7352 10.1859Z" fill="#F7931A"/>
</svg>
