<svg width="28" height="28" viewBox="0 0 28 28" fill="none" xmlns="http://www.w3.org/2000/svg">
<path d="M13.992 0.299927L13.8062 0.931154L13.8062 19.2463L13.992 19.4317L22.4935 14.4064L13.992 0.299927Z" fill="#343434"/>
<path d="M14.0029 0.299927L5.50122 14.4064L14.0029 19.4317L14.0029 10.542L14.0029 0.299927Z" fill="#8C8C8C"/>
<path d="M13.9915 21.0424L13.8867 21.1701L13.8867 27.6942L13.9915 28L22.4982 16.0197L13.9915 21.0424Z" fill="#3C3C3B"/>
<path d="M14.0029 28L14.0029 21.0424L5.50122 16.0197L14.0029 28Z" fill="#8C8C8C"/>
<path d="M13.9954 19.4315L22.4969 14.4062L13.9954 10.5419L13.9954 19.4315Z" fill="#141414"/>
<path d="M5.50122 14.4061L14.0029 19.4314L14.0029 10.5417L5.50122 14.4061Z" fill="#393939"/>
</svg>
