<svg width="96" height="24" viewBox="0 0 96 24" fill="none" xmlns="http://www.w3.org/2000/svg">
<path d="M40.5012 3.59717L40.4885 3.60986C40.961 4.23022 40.7744 5.34741 39.9622 6.25342C39.101 7.21306 37.9179 7.51189 37.2542 7.00928L37.2512 7.01318L36.4387 6.41064L36.7922 6.03955C36.7693 5.44602 37.0443 4.73953 37.5696 4.15381C38.1454 3.51178 38.9027 3.14791 39.5403 3.16064L39.8918 2.79346L40.5012 3.59717Z" fill="url(#paint0_linear_7252_144)"/>
<path d="M39.4068 5.68998C40.33 4.66065 40.5108 3.32805 39.8106 2.71353C39.1104 2.099 37.7944 2.43527 36.8713 3.4646C35.9481 4.49393 35.7673 5.82654 36.4675 6.44106C37.1677 7.05558 38.4837 6.71931 39.4068 5.68998Z" fill="url(#paint1_linear_7252_144)"/>
<path d="M39.4197 5.7011C40.3372 4.67808 40.5077 3.34558 39.8004 2.72487C39.0932 2.10416 37.7761 2.4303 36.8586 3.45332C35.9411 4.47634 35.7706 5.80885 36.4778 6.42956C37.185 7.05026 38.5022 6.72413 39.4197 5.7011Z" fill="#0052FE"/>
<path d="M9.64087 12.073L18.6366 2.53833H13.8528L4.29882 12.466V2.53833H0V22.2796H4.29882V17.6252L6.81019 15.0468L12.7925 22.2796H17.8404L10.2494 12.8309L9.64087 12.0722V12.073Z" fill="#0052FE"/>
<path d="M32.4998 11.3119C31.1625 9.21331 28.7088 7.91528 25.7173 7.91528C22.5202 7.91528 19.9243 9.39897 18.6585 11.7499C18.1117 12.757 17.8135 13.9264 17.8135 15.2035C17.8135 19.4649 21.1495 22.4918 25.7173 22.4918C30.285 22.4918 33.5959 19.4649 33.5959 15.2035C33.5959 13.7351 33.2018 12.4122 32.4998 11.3119ZM25.7173 19.1233C23.6341 19.1233 22.031 17.6501 22.031 15.2035C22.031 13.0993 23.214 11.7153 24.8707 11.3697C25.1412 11.3111 25.4248 11.2821 25.7173 11.2821C25.9228 11.2821 26.1203 11.295 26.3144 11.3263C28.093 11.5803 29.3759 12.9957 29.3759 15.2035C29.3759 17.6501 27.8013 19.1233 25.7181 19.1233H25.7173Z" fill="#0052FE"/>
<path d="M40.5386 8.12573H36.373V22.2802H40.5386V8.12573Z" fill="#0052FE"/>
<path d="M53.1451 7.91528C51.1952 7.91528 49.5125 8.57434 48.3913 9.78315V8.12586H44.4126V22.2804H48.5774V15.2815C48.5774 14.2527 48.8016 13.4417 49.2005 12.8397C49.805 11.9114 50.8125 11.4686 52.0239 11.4686C53.661 11.4686 54.6864 12.2988 54.8944 14.0871C54.9212 14.3106 54.9342 14.5533 54.9342 14.8089V22.2796H57.2286L59.1022 19.706V14.1788C59.1022 9.86192 56.5372 7.91528 53.1451 7.91528Z" fill="#0052FE"/>
<path d="M80.7554 2.4707L60.3191 22.2803H66.68L68.5471 19.6545L79.1215 4.77098L80.7554 2.4707Z" fill="url(#paint2_linear_7252_144)"/>
<path d="M74.7316 2.4707L74.0784 3.36928L63.8225 17.4635L60.3191 22.2803L80.7554 2.4707H74.7316Z" fill="url(#paint3_linear_7252_144)"/>
<path d="M78.7321 18.8211L78.4681 18.4514C78.2479 18.1427 77.8896 17.9595 77.5094 17.9595H72.7019C72.524 17.9595 72.3859 18.064 72.3201 18.203L81.2061 22.2803L78.7321 18.8211Z" fill="#F69300"/>
<path d="M72.3202 18.2031C72.2617 18.3269 72.2609 18.478 72.3479 18.6098L73.335 20.0959H73.3375L74.7894 22.2805H81.2071L72.3211 18.2031H72.3202Z" fill="url(#paint4_linear_7252_144)"/>
<path d="M69.4311 6.13725L67.9094 3.92699L66.9068 2.47144H60.6279L69.3328 6.7079C69.5034 6.58172 69.5676 6.33578 69.4319 6.13725H69.4311Z" fill="url(#paint5_linear_7252_144)"/>
<path d="M60.627 2.47077L63.3057 6.29091C63.3171 6.30618 63.3276 6.31904 63.339 6.33431C63.5608 6.62124 63.9045 6.79083 64.2717 6.79083H69.0816C69.1799 6.79083 69.2636 6.75707 69.3327 6.70644L60.6278 2.46997L60.627 2.47077Z" fill="#F69300"/>
<path d="M87.6894 6.79006V3.10592H89.4566C89.6429 3.10592 89.8227 3.15085 89.9957 3.2407C90.1721 3.32723 90.3169 3.45703 90.43 3.63008C90.5465 3.79981 90.6047 4.00948 90.6047 4.25908C90.6047 4.50869 90.5448 4.72501 90.425 4.90805C90.3086 5.08776 90.1588 5.22588 89.9757 5.32239C89.796 5.4189 89.6097 5.46716 89.4166 5.46716H88.0488V4.96296H89.2469C89.4166 4.96296 89.5681 4.90306 89.7012 4.78325C89.8376 4.66011 89.9059 4.48539 89.9059 4.25908C89.9059 4.02612 89.8376 3.85972 89.7012 3.75988C89.5681 3.66004 89.4216 3.61011 89.2619 3.61011H88.3334V6.79006H87.6894ZM89.836 5.07778L90.7545 6.79006H90.0357L89.1421 5.07778H89.836ZM89.0422 8.98656C88.4898 8.98656 87.9723 8.88339 87.4897 8.67706C87.0071 8.47072 86.5828 8.18451 86.2167 7.81842C85.8506 7.45234 85.5644 7.02801 85.3581 6.54545C85.1518 6.06288 85.0486 5.54537 85.0486 4.99292C85.0486 4.44046 85.1518 3.92295 85.3581 3.44038C85.5644 2.95782 85.8506 2.53349 86.2167 2.16741C86.5828 1.80133 87.0071 1.51511 87.4897 1.30878C87.9723 1.10244 88.4898 0.999268 89.0422 0.999268C89.5947 0.999268 90.1122 1.10244 90.5948 1.30878C91.0773 1.51511 91.5017 1.80133 91.8677 2.16741C92.2338 2.53349 92.52 2.95782 92.7264 3.44038C92.9327 3.92295 93.0359 4.44046 93.0359 4.99292C93.0359 5.54537 92.9327 6.06288 92.7264 6.54545C92.52 7.02801 92.2338 7.45234 91.8677 7.81842C91.5017 8.18451 91.0773 8.47072 90.5948 8.67706C90.1122 8.88339 89.5947 8.98656 89.0422 8.98656ZM89.0422 8.24275C89.6413 8.24275 90.1854 8.09631 90.6746 7.80345C91.1672 7.51058 91.5599 7.11953 91.8528 6.63031C92.1456 6.13776 92.2921 5.59196 92.2921 4.99292C92.2921 4.39387 92.1456 3.84973 91.8528 3.36051C91.5599 2.86796 91.1672 2.47525 90.6746 2.18239C90.1854 1.88952 89.6413 1.74308 89.0422 1.74308C88.4432 1.74308 87.8974 1.88952 87.4048 2.18239C86.9156 2.47525 86.5246 2.86796 86.2317 3.36051C85.9388 3.84973 85.7924 4.39387 85.7924 4.99292C85.7924 5.59196 85.9388 6.13776 86.2317 6.63031C86.5246 7.11953 86.9156 7.51058 87.4048 7.80345C87.8974 8.09631 88.4432 8.24275 89.0422 8.24275Z" fill="#D1D7ED"/>
<defs>
<linearGradient id="paint0_linear_7252_144" x1="40.6015" y1="3.79806" x2="37.5928" y2="7.34572" gradientUnits="userSpaceOnUse">
<stop stop-color="#3372F5"/>
<stop offset="0.249995" stop-color="#3372F5"/>
<stop offset="0.505208" stop-color="#80DBFB"/>
<stop offset="0.838547" stop-color="#3372F5"/>
<stop offset="1" stop-color="#3372F5"/>
</linearGradient>
<linearGradient id="paint1_linear_7252_144" x1="45.1138" y1="3.78643" x2="44.3085" y2="4.70273" gradientUnits="userSpaceOnUse">
<stop stop-color="#0080D4"/>
<stop offset="0.47" stop-color="white"/>
<stop offset="0.6" stop-color="#F1F8FC"/>
<stop offset="1" stop-color="#007DCC"/>
</linearGradient>
<linearGradient id="paint2_linear_7252_144" x1="76.164" y1="7.78658" x2="68.3444" y2="16.9316" gradientUnits="userSpaceOnUse">
<stop stop-color="#FFAC00"/>
<stop offset="1" stop-color="#FE7801"/>
</linearGradient>
<linearGradient id="paint3_linear_7252_144" x1="60.3191" y1="12.3759" x2="80.7554" y2="12.3759" gradientUnits="userSpaceOnUse">
<stop stop-color="#FFCE00"/>
<stop offset="1" stop-color="#FFB003"/>
</linearGradient>
<linearGradient id="paint4_linear_7252_144" x1="72.2788" y1="20.2422" x2="81.2063" y2="20.2422" gradientUnits="userSpaceOnUse">
<stop stop-color="#FE8B01"/>
<stop offset="1" stop-color="#FE7801"/>
</linearGradient>
<linearGradient id="paint5_linear_7252_144" x1="60.6271" y1="4.58927" x2="69.5051" y2="4.58927" gradientUnits="userSpaceOnUse">
<stop stop-color="#FFCE00"/>
<stop offset="1" stop-color="#FFC101"/>
</linearGradient>
</defs>
</svg>
