<svg width="28" height="28" viewBox="0 0 28 28" fill="none" xmlns="http://www.w3.org/2000/svg">
<path d="M21.1458 9.43768C20.6354 9.15907 19.9792 9.15907 19.3958 9.43768L15.3125 11.7362L12.5417 13.1989L8.53125 15.4974C8.02083 15.776 7.36458 15.776 6.78125 15.4974L3.64583 13.6864C3.13542 13.4078 2.77083 12.8506 2.77083 12.2238V8.74116C2.77083 8.18395 3.0625 7.62673 3.64583 7.27848L6.78125 5.53718C7.29167 5.25857 7.94792 5.25857 8.53125 5.53718L11.6667 7.34813C12.1771 7.62673 12.5417 8.18395 12.5417 8.81081V11.1093L15.3125 9.57698V7.20882C15.3125 6.65161 15.0208 6.0944 14.4375 5.74614L8.60417 2.47251C8.09375 2.1939 7.4375 2.1939 6.85417 2.47251L0.875 5.81579C0.291667 6.0944 0 6.65161 0 7.20882V13.7561C0 14.3133 0.291667 14.8705 0.875 15.2188L6.78125 18.4924C7.29167 18.771 7.94792 18.771 8.53125 18.4924L12.5417 16.2636L15.3125 14.7312L19.3229 12.5024C19.8333 12.2238 20.4896 12.2238 21.0729 12.5024L24.2083 14.2437C24.7187 14.5223 25.0833 15.0795 25.0833 15.7063V19.1889C25.0833 19.7461 24.7917 20.3034 24.2083 20.6516L21.1458 22.3929C20.6354 22.6715 19.9792 22.6715 19.3958 22.3929L16.2604 20.6516C15.75 20.373 15.3854 19.8158 15.3854 19.1889V16.9601L12.6146 18.4924V20.7909C12.6146 21.3481 12.9062 21.9053 13.4896 22.2536L19.3958 25.5272C19.9062 25.8058 20.5625 25.8058 21.1458 25.5272L27.0521 22.2536C27.5625 21.975 27.9271 21.4178 27.9271 20.7909V14.174C27.9271 13.6168 27.6354 13.0596 27.0521 12.7113L21.1458 9.43768Z" fill="#8247E5"/>
</svg>
