<svg width="28" height="28" viewBox="0 0 28 28" fill="none" xmlns="http://www.w3.org/2000/svg">
<path fill-rule="evenodd" clip-rule="evenodd" d="M16.2155 14.7512C16.0918 14.7604 15.4524 14.7985 14.0263 14.7985C12.892 14.7985 12.0867 14.7645 11.8041 14.7512C7.42061 14.5589 4.14869 13.7979 4.14869 12.8867C4.14869 11.9756 7.42061 11.2156 11.8041 11.0202V13.9933C12.0908 14.0138 12.9116 14.0622 14.0459 14.0622C15.4071 14.0622 16.0887 14.0056 16.2114 13.9943V11.0222C20.5856 11.2166 23.8503 11.9776 23.8503 12.8867C23.8503 13.7958 20.5866 14.5568 16.2114 14.7501L16.2155 14.7512ZM16.2155 10.7148V8.05431H22.32V3.99731H5.69958V8.05431H11.8031V10.7137C6.84212 10.941 3.11133 11.9211 3.11133 13.0955C3.11133 14.2699 6.84212 15.2489 11.8031 15.4772V24.0026H16.2145V15.4741C21.1641 15.2469 24.8887 14.2678 24.8887 13.0944C24.8887 11.9211 21.1672 10.942 16.2145 10.7137L16.2155 10.7148Z" fill="#50AF95"/>
</svg>
